<svg width="33" height="23" viewBox="0 0 33 23" fill="none" xmlns="http://www.w3.org/2000/svg">
<path d="M31.3997 5.77623L31.4016 5.789L31.4018 5.79029L31.4018 5.79031L31.4018 5.79034L31.4018 5.7906L31.402 5.79181L31.4026 5.79696L31.4051 5.81797L31.4148 5.90123C31.4233 5.97445 31.4353 6.08224 31.4499 6.21963C31.479 6.49447 31.5178 6.88757 31.5569 7.35935C31.6352 8.30388 31.7138 9.5594 31.7167 10.8108V13.1809C31.7167 14.435 31.6395 15.6903 31.562 16.634C31.5233 17.1053 31.4846 17.4978 31.4556 17.7721C31.4412 17.9092 31.4291 18.0168 31.4207 18.0898L31.411 18.1729L31.4085 18.1938L31.4081 18.1966L31.408 18.1977L31.4055 18.2137C31.4033 18.2281 31.3998 18.2501 31.395 18.2788C31.3854 18.3362 31.3705 18.4203 31.3496 18.5246C31.3078 18.7336 31.2427 19.0215 31.1496 19.337C30.9583 19.9854 30.6675 20.6831 30.2671 21.0863L30.2671 21.0863L30.2621 21.0915C29.2892 22.11 28.2319 22.2153 27.5644 22.2817C27.4926 22.2889 27.4254 22.2956 27.3633 22.3029C25.1872 22.4577 22.462 22.5383 20.2758 22.5801C19.182 22.6011 18.2248 22.6123 17.541 22.6182C17.1991 22.6212 16.9257 22.6229 16.7378 22.6238L16.5222 22.6247L16.4666 22.6249L16.4525 22.6249L16.449 22.6249L16.4481 22.6249H16.4479L16.4461 22.6249L16.4287 22.6247L16.3603 22.6241L16.0983 22.6213C15.8713 22.6189 15.5441 22.6151 15.1436 22.6098C14.3427 22.5992 13.2488 22.5826 12.0768 22.5585C9.7368 22.5105 7.10639 22.4331 5.86309 22.3164C5.71775 22.2891 5.55371 22.2684 5.3761 22.246C4.57904 22.1455 3.50869 22.0105 2.629 21.0904L2.62903 21.0904L2.6249 21.0862C2.22702 20.6829 1.93755 19.985 1.74686 19.3364C1.65408 19.0208 1.58912 18.7328 1.54742 18.5238C1.52661 18.4195 1.51169 18.3354 1.50206 18.2779C1.49725 18.2492 1.49377 18.2272 1.49154 18.2127L1.48912 18.1967L1.48897 18.1957L1.48863 18.1929L1.48611 18.1719L1.4764 18.0887C1.46799 18.0155 1.45594 17.9077 1.44144 17.7702C1.41246 17.4954 1.37376 17.1022 1.33505 16.6305C1.25754 15.6859 1.18036 14.4306 1.18036 13.1799V10.809C1.18036 9.55536 1.25754 8.30005 1.33504 7.35627C1.37376 6.88487 1.41246 6.4923 1.44144 6.2179C1.45593 6.08072 1.46798 5.97314 1.47639 5.90007L1.4861 5.81699L1.48862 5.79604L1.48903 5.79268L1.48927 5.79104L1.49163 5.7751C1.49381 5.76063 1.49723 5.73865 1.50195 5.70997C1.51141 5.65257 1.52608 5.56849 1.54663 5.46423C1.5878 5.2553 1.6521 4.96747 1.74442 4.65206C1.93416 4.00381 2.22351 3.30661 2.62394 2.90368L2.62399 2.90373L2.629 2.89848C3.60291 1.87983 4.65967 1.7746 5.32699 1.70815C5.39876 1.701 5.46603 1.6943 5.5282 1.68696C7.70385 1.52927 10.4273 1.45012 12.6121 1.41048C13.7051 1.39065 14.6616 1.38073 15.3447 1.37577C15.6863 1.3733 15.9595 1.37206 16.1472 1.37144L16.3626 1.3709L16.4181 1.37083L16.4322 1.37082L16.4357 1.37082L16.4365 1.37082L16.4368 1.37082L16.4368 0.99585V1.37082H16.4485V0.99585L16.4486 1.37082L16.4488 1.37082L16.4497 1.37082L16.4532 1.37082L16.4672 1.37083L16.5228 1.3709L16.7381 1.37144C16.9258 1.37206 17.199 1.3733 17.5406 1.37577C18.2238 1.38073 19.1803 1.39065 20.2732 1.41048C22.458 1.45012 25.1815 1.52927 27.3571 1.68696C27.4193 1.6943 27.4866 1.701 27.5584 1.70815C28.2257 1.7746 29.2824 1.87983 30.2563 2.89848L30.2563 2.89853L30.2613 2.90354C30.6616 3.30681 30.9524 4.00449 31.1437 4.65286C31.2368 4.96836 31.302 5.25627 31.3437 5.46526C31.3646 5.56954 31.3795 5.65364 31.3892 5.71106C31.394 5.73976 31.3974 5.76175 31.3997 5.77623ZM12.8354 16.0582V16.675L13.383 16.3911L21.8342 12.0101L22.4741 11.6784L21.8352 11.3448L13.384 6.93245L12.8354 6.64607V7.26484V16.0582Z" stroke="white" stroke-width="0.74994"/>
</svg>
