<svg width="22" height="22" viewBox="0 0 22 22" fill="none" xmlns="http://www.w3.org/2000/svg">
<path d="M13.6708 9.29538V8.34076C13.6708 7.81659 14.1012 7.38615 14.6254 7.38615H17.2845H17.6595V7.01118V4.35202V3.97705H17.2845H14.6254C12.2205 3.97705 10.2617 5.93588 10.2617 8.34076V9.29538H7.97748H7.60251V9.67035V12.3295V12.7045H7.97748H10.2617V21.2616H1.99437C1.10456 21.2616 0.37497 20.532 0.37497 19.6422V2.35765C0.37497 1.46784 1.10456 0.738251 1.99437 0.738251H19.2789C20.1687 0.738251 20.8983 1.46784 20.8983 2.35765V19.6422C20.8983 20.532 20.1687 21.2616 19.2789 21.2616H13.6708V12.7045H16.6198H16.9125L16.9835 12.4205L17.6483 9.76129L17.7648 9.29538H17.2845H13.6708Z" stroke="white" stroke-width="0.74994"/>
</svg>
