<svg width="23" height="24" viewBox="0 0 23 24" fill="none" xmlns="http://www.w3.org/2000/svg">
<path d="M7.5263 1.42504C8.6611 1.37518 9.02208 1.36255 11.9099 1.36255C14.7978 1.36255 15.1601 1.37452 16.2982 1.42836C17.4284 1.47822 18.2008 1.66104 18.8783 1.92297C19.5763 2.19287 20.1706 2.55917 20.7603 3.14884C21.3539 3.73917 21.7156 4.33283 21.9775 5.0395C22.2394 5.71227 22.4223 6.48941 22.4721 7.61955C22.522 8.75435 22.5346 9.11533 22.5346 12.0032C22.5346 14.891 22.522 15.2527 22.4721 16.3868C22.4223 17.517 22.2394 18.2894 21.9775 18.9669C21.7076 19.6649 21.3413 20.2585 20.7516 20.8489C20.162 21.4392 19.5676 21.8048 18.8696 22.0748C18.1969 22.3367 17.4197 22.5195 16.2896 22.5694C15.1554 22.6192 14.7938 22.6318 11.9059 22.6318C9.01809 22.6318 8.65645 22.6192 7.52231 22.5694C6.39217 22.5195 5.61968 22.3367 4.94226 22.0748C4.24423 21.8048 3.64991 21.4385 3.06024 20.8489C2.46592 20.2592 2.10494 19.6649 1.83038 18.9629C1.56845 18.2901 1.38563 17.513 1.33578 16.3828C1.28592 15.248 1.27328 14.887 1.27328 11.9992C1.27328 9.11134 1.28592 8.75036 1.33578 7.61158C1.38563 6.48143 1.56845 5.70895 1.83038 5.03153C2.10427 4.3335 2.46592 3.73984 3.06024 3.14951C3.64991 2.55518 4.24423 2.19354 4.94625 1.91964C5.61902 1.65772 6.39616 1.4749 7.5263 1.42504Z" stroke="white" stroke-width="0.74994"/>
<path d="M11.91 6.53528C8.8938 6.53528 6.44604 8.98237 6.44604 11.9992C6.44604 15.016 8.89314 17.4631 11.91 17.4631C14.9268 17.4631 17.3739 15.016 17.3739 11.9992C17.3739 8.98304 14.9268 6.53528 11.91 6.53528Z" stroke="white" stroke-width="0.74994"/>
<path d="M18.865 6.31931C18.865 7.02399 18.2939 7.59504 17.5893 7.59504C16.8846 7.59504 16.3135 7.02399 16.3135 6.31931C16.3135 5.61463 16.8846 5.04358 17.5893 5.04358C18.2939 5.04358 18.865 5.61463 18.865 6.31931V6.31931Z" stroke="white" stroke-width="0.74994"/>
</svg>
