<svg width="26" height="21" viewBox="0 0 26 21" fill="none" xmlns="http://www.w3.org/2000/svg">
<path d="M8.1898 16.1183C6.28914 16.0805 4.65088 14.9451 3.88914 13.32C4.02122 13.3299 4.15516 13.3353 4.2917 13.3353C4.80253 13.3353 5.29758 13.2663 5.76648 13.1384L5.7411 12.4089C3.69772 12.0017 2.11934 10.3046 1.88431 8.20394C2.48798 8.452 3.14498 8.601 3.83332 8.62085L5.13816 8.65847L4.05221 7.93409C2.75119 7.06626 1.89854 5.58187 1.89854 3.90304C1.89854 3.21045 2.04467 2.5494 2.30686 1.95236C4.93645 4.94509 8.72207 6.89532 12.9668 7.10926L13.4645 7.13435L13.3507 6.64918C13.2678 6.2954 13.2263 5.92669 13.2263 5.54706C13.2263 2.87234 15.394 0.70456 18.0688 0.70456C19.4625 0.70456 20.7211 1.29027 21.6069 2.2314L21.7489 2.38235L21.9523 2.34232C22.8137 2.17282 23.6391 1.90011 24.4149 1.54021C24.0014 2.25162 23.4122 2.84892 22.7063 3.27219L22.9429 3.96619C23.5842 3.89068 24.21 3.75991 24.8139 3.57689C24.2971 4.17428 23.7122 4.71002 23.0732 5.16846L22.9078 5.28711L22.9172 5.49046C22.9273 5.70757 22.9319 5.92596 22.9319 6.14887C22.9319 12.8841 17.8051 20.625 8.45583 20.625C6.13167 20.625 3.939 20.0769 1.99095 19.1006C4.41359 19.0368 6.63286 18.1829 8.41354 16.7884L9.24253 16.1392L8.1898 16.1183Z" stroke="white" stroke-width="0.74994"/>
</svg>
