<svg width="42" height="42" viewBox="0 0 42 42" fill="none" xmlns="http://www.w3.org/2000/svg">
<path d="M31.7744 14.6051L30.9169 13.7476L22.9738 21.6906C21.9809 22.6835 20.3111 22.6835 19.3182 21.6906L11.3752 13.7927L10.5177 14.6502L16.4298 20.5623L10.5177 26.4745L11.3752 27.332L17.2873 21.4198L18.4607 22.5932C19.1828 23.3153 20.1306 23.7215 21.1235 23.7215C22.1163 23.7215 23.0641 23.3153 23.7862 22.5932L24.9596 21.4198L30.8717 27.332L31.7292 26.4745L25.8171 20.5623L31.7744 14.6051Z" fill="white"/>
<path d="M30.1045 28.8664H12.2778C11.2398 28.8664 10.3823 28.0089 10.3823 26.9709V14.244C10.3823 13.206 11.2398 12.3485 12.2778 12.3485H30.1045C31.1425 12.3485 32 13.206 32 14.244V26.9709C32 28.0089 31.1425 28.8664 30.1045 28.8664ZM12.2327 13.567C11.8716 13.567 11.6008 13.8378 11.6008 14.1989V26.9258C11.6008 27.2868 11.8716 27.5576 12.2327 27.5576H30.0594C30.4204 27.5576 30.6912 27.2868 30.6912 26.9258V14.1989C30.6912 13.8378 30.4204 13.567 30.0594 13.567H12.2327Z" fill="white"/>
<circle cx="21" cy="21" r="20.5" stroke="white"/>
</svg>
