<svg width="42" height="42" viewBox="0 0 42 42" fill="none" xmlns="http://www.w3.org/2000/svg">
<path d="M20.656 36.0017L20.0851 35.304C19.7046 34.7966 10 23.4429 10 16.656C10 10.7572 14.8206 6 20.656 6C26.4914 6 31.312 10.8206 31.312 16.656C31.312 23.4429 21.6074 34.86 21.2269 35.304L20.656 36.0017ZM20.656 7.45887C15.5817 7.45887 11.5223 11.5817 11.5223 16.5926C11.5223 21.9206 18.5629 30.9909 20.656 33.5914C22.7491 30.9909 29.7897 21.984 29.7897 16.5926C29.7897 11.5817 25.7303 7.45887 20.656 7.45887Z" fill="white"/>
<path d="M20.656 20.7154C18.436 20.7154 16.5966 18.876 16.5966 16.656C16.5966 14.436 18.436 12.5966 20.656 12.5966C22.876 12.5966 24.7154 14.436 24.7154 16.656C24.7154 18.876 22.876 20.7154 20.656 20.7154ZM20.656 14.1189C19.2606 14.1189 18.1189 15.2606 18.1189 16.656C18.1189 18.0514 19.2606 19.1931 20.656 19.1931C22.0514 19.1931 23.1932 18.0514 23.1932 16.656C23.1932 15.2606 22.0514 14.1189 20.656 14.1189Z" fill="white"/>
<circle cx="21" cy="21" r="20.5" stroke="white"/>
</svg>
